<svg width="1001" height="280" viewBox="0 0 1001 280" fill="none" xmlns="http://www.w3.org/2000/svg">
<path d="M0 279.785L73.2422 67.6758H129.785L203.174 279.785H155.859L102.393 115.576H100.635L47.0215 279.785H0ZM157.91 196.436V230.859H44.6777V196.436H157.91ZM246.826 279.785V241.992H300C313.672 241.992 325.049 239.551 334.131 234.668C343.213 229.785 350.049 222.314 354.639 212.256C359.229 202.1 361.523 189.209 361.523 173.584C361.523 157.959 359.229 145.117 354.639 135.059C350.146 124.902 343.359 117.432 334.277 112.646C325.195 107.861 313.867 105.469 300.293 105.469H245.801V67.6758H302.49C323.779 67.6758 342.139 71.9238 357.568 80.4199C373.096 88.8184 384.961 100.977 393.164 116.895C401.465 132.812 405.615 151.709 405.615 173.584C405.615 195.557 401.465 214.502 393.164 230.42C384.863 246.338 372.9 258.545 357.275 267.041C341.748 275.537 323.291 279.785 301.904 279.785H246.826ZM271.143 279.785H227.197V67.6758H271.143V279.785ZM437.549 67.6758H579.932V104.004H481.494V155.566H572.461V191.748H481.494V243.457H580.225V279.785H437.549V67.6758ZM515.332 0H555.615L523.828 47.0215H493.066L515.332 0ZM614.209 67.6758H658.154V243.457H749.414V279.785H614.209V67.6758ZM821.924 279.785H777.979V67.6758H821.924V279.785ZM857.959 67.6758H1000.34V104.004H901.904V155.566H992.871V191.748H901.904V243.457H1000.63V279.785H857.959V67.6758Z" fill="black"/>
</svg>
